<svg xmlns="http://www.w3.org/2000/svg" xmlns:xlink="http://www.w3.org/1999/xlink">
  <defs>
    <symbol viewBox="0 0 50 50" id="faq">
      <path fill="currentColor" d="M12,22A10,10,0,1,0,2,12,10,10,0,0,0,12,22Zm0-2a1.5,1.5,0,1,1,1.5-1.5A1.5,1.5,0,0,1,12,20ZM8,8.994a3.907,3.907,0,0,1,2.319-3.645,4.061,4.061,0,0,1,3.889.316,4,4,0,0,1,.294,6.456,3.972,3.972,0,0,0-1.411,2.114,1,1,0,0,1-1.944-.47,5.908,5.908,0,0,1,2.1-3.2,2,2,0,0,0-.146-3.23,2.06,2.06,0,0,0-2.006-.14,1.937,1.937,0,0,0-1.1,1.8A1,1,0,0,1,8,9Z"/>
    </symbol>
    <symbol viewBox="0 0 448 512" id="plus">
      <path fill="currentColor" d="M256 80c0-17.7-14.3-32-32-32s-32 14.3-32 32V224H48c-17.7 0-32 14.3-32 32s14.3 32 32 32H192V432c0 17.7 14.3 32 32 32s32-14.3 32-32V288H400c17.7 0 32-14.3 32-32s-14.3-32-32-32H256V80z"/>
    </symbol>
    <symbol viewBox="0 0 384 512" id="cross">
      <path fill="currentColor" d="M342.6 150.6c12.5-12.5 12.5-32.8 0-45.3s-32.8-12.5-45.3 0L192 210.7 86.6 105.4c-12.5-12.5-32.8-12.5-45.3 0s-12.5 32.8 0 45.3L146.7 256 41.4 361.4c-12.5 12.5-12.5 32.8 0 45.3s32.8 12.5 45.3 0L192 301.3 297.4 406.6c12.5 12.5 32.8 12.5 45.3 0s12.5-32.8 0-45.3L237.3 256 342.6 150.6z"/>
    </symbol>
  </defs>
</svg>
