<?xml version="1.0" encoding="utf-8"?>
<!-- Generator: Adobe Illustrator 25.0.0, SVG Export Plug-In . SVG Version: 6.00 Build 0)  -->
<svg version="1.1" id="Ebene_1" xmlns="http://www.w3.org/2000/svg" xmlns:xlink="http://www.w3.org/1999/xlink" x="0px" y="0px"
	 viewBox="0 0 464.9 193.6" style="enable-background:new 0 0 464.9 193.6;" xml:space="preserve">
<style type="text/css">
	.st0{fill:#FFFFFF;}
	.st1{fill:#3D4144;}
	.st2{fill:#517CBE;}
	.st3{fill:#32A853;}
	.st4{fill:#FABB0D;}
	.st5{fill:#E84336;}
	.st6{fill:#263C7F;}
	.st7{fill:#179BD7;}
	.st8{fill:#253064;}
	.st9{fill:#F5B1C6;}
	.st10{fill:#0A0C0B;}
	.st11{fill:#6C6CB0;}
	.st12{fill:#E41522;}
	.st13{fill:#2197D5;}
	.st14{fill:#231F20;}
	.st15{fill:#020203;}
	.st16{fill:#EB621D;}
	.st17{fill:#F59E1F;}
	.st18{fill:#EE8005;}
	.st19{fill:#393A41;}
	.st20{clip-path:url(#SVGID_4_);}
	.st21{fill:url(#path10283_1_);}
	.st22{fill:#2A6CB4;}
	.st23{fill:none;}
	.st24{fill:#0A3677;}
	.st25{fill:#E30613;}
</style>
<g id="layer1_9_" transform="translate(-55.5,-1002.3452)">
	<path id="path3046_1_" class="st0" d="M80.74,1033.12l-25.24,58.69h16.44l4.66-11.75h27.08l4.63,11.75h16.8l-25.22-58.69
		L80.74,1033.12L80.74,1033.12z M90.08,1046.78l8.25,20.54H81.81L90.08,1046.78z"/>
	<path id="path3048_1_" class="st0" d="M126.84,1091.81v-58.69l23.36,0.09l13.58,37.84l13.26-37.93h23.17v58.69h-14.67v-43.25
		l-15.55,43.25h-12.87l-15.6-43.25v43.25H126.84z"/>
	<path id="path3050_1_" class="st0" d="M210.25,1091.81v-58.69h47.88v13.13h-33.05v10.04h32.28v12.36h-32.28v10.43h33.05v12.74
		L210.25,1091.81z"/>
	<path id="path3052_1_" class="st0" d="M266.62,1033.12v58.69h14.67v-20.85h6.18l17.59,20.85H323l-19.31-21.62
		c7.92-0.67,16.1-7.47,16.1-18.03c0-12.35-9.69-19.04-20.51-19.04L266.62,1033.12L266.62,1033.12z M281.3,1046.25h16.77
		c4.02,0,6.95,3.15,6.95,6.18c0,3.9-3.79,6.18-6.73,6.18H281.3V1046.25L281.3,1046.25z"/>
	<path id="path3054_1_" class="st0" d="M340.76,1091.81h-14.98v-58.69h14.98V1091.81z"/>
	<path id="path3056_1_" class="st0" d="M376.29,1091.81h-3.23c-15.65,0-25.15-12.33-25.15-29.11c0-17.19,9.39-29.59,29.15-29.59
		h16.22v13.9h-16.81c-8.02,0-13.69,6.26-13.69,15.83c0,11.37,6.49,16.14,15.83,16.14h3.86L376.29,1091.81z"/>
	<path id="path3058_1_" class="st0" d="M408.22,1033.12l-25.24,58.69h16.44l4.66-11.75h27.08l4.63,11.75h16.8l-25.22-58.69
		L408.22,1033.12L408.22,1033.12z M417.56,1046.78l8.25,20.54h-16.53L417.56,1046.78L417.56,1046.78z"/>
	<path id="path3060_1_" class="st0" d="M454.29,1091.81v-58.69h18.66l23.82,36.88v-36.88h14.67v58.69h-18.05l-24.42-37.84v37.84
		H454.29z"/>
	<path id="path3062_1_" class="st0" d="M126.84,1165.16v-58.69h47.88v13.13h-33.05v10.04h32.28V1142h-32.28v10.43h33.05v12.74
		L126.84,1165.16z"/>
	<path id="path3064_1_" class="st0" d="M361.46,1165.16v-58.69h47.88v13.13h-33.05v10.04h32.13V1142h-32.13v10.43h33.05v12.74
		L361.46,1165.16z"/>
	<path id="path3066_1_" class="st0" d="M176.58,1165.16l23.31-28.98l-23.87-29.71h18.49l14.21,18.37l14.26-18.37h17.76l-23.55,29.35
		l23.36,29.35h-18.48l-13.8-18.08l-13.47,18.08H176.58z"/>
	<path id="path3068_1_" class="st0" d="M242.3,1106.48v58.69h15.06v-18.53h15.45c13.07,0,22.98-6.93,22.98-20.42
		c0-11.17-7.77-19.74-21.07-19.74H242.3L242.3,1106.48z M257.36,1119.75h16.27c4.22,0,7.24,2.59,7.24,6.76c0,3.92-3,6.76-7.29,6.76
		h-16.22V1119.75L257.36,1119.75z"/>
	<path id="path3072_1_" class="st0" d="M302.15,1106.47v58.69h14.67v-20.85H323l17.59,20.85h17.93l-19.31-21.62
		c7.92-0.67,16.1-7.47,16.1-18.03c0-12.35-9.69-19.04-20.51-19.04L302.15,1106.47L302.15,1106.47z M316.82,1119.6h16.77
		c4.02,0,6.95,3.15,6.95,6.18c0,3.9-3.79,6.18-6.73,6.18h-16.99V1119.6z"/>
	<path id="path3074_1_" class="st0" d="M416.14,1165.16v-12.74h29.37c4.35,0,6.23-2.35,6.23-4.92c0-2.47-1.88-4.96-6.23-4.96h-13.27
		c-11.53,0-17.96-7.03-17.96-17.58c0-9.41,5.88-18.49,23.02-18.49h28.57l-6.18,13.21h-24.71c-4.72,0-6.18,2.48-6.18,4.85
		c0,2.43,1.8,5.12,5.41,5.12h13.9c12.86,0,18.44,7.29,18.44,16.85c0,10.27-6.22,18.68-19.14,18.68H416.14z"/>
	<path id="path3076_1_" class="st0" d="M469.99,1165.16v-12.74h29.37c4.35,0,6.23-2.35,6.23-4.92c0-2.47-1.88-4.96-6.23-4.96h-13.27
		c-11.53,0-17.96-7.03-17.96-17.58c0-9.41,5.88-18.49,23.02-18.49h28.57l-6.18,13.21h-24.71c-4.72,0-6.18,2.48-6.18,4.85
		c0,2.43,1.8,5.12,5.41,5.12h13.9c12.86,0,18.44,7.29,18.44,16.85c0,10.27-6.22,18.68-19.14,18.68H469.99z"/>
</g>
</svg>
