<?xml version="1.0" encoding="utf-8"?>
<!-- Generator: Adobe Illustrator 25.0.0, SVG Export Plug-In . SVG Version: 6.00 Build 0)  -->
<svg version="1.1" id="Ebene_1" xmlns="http://www.w3.org/2000/svg" xmlns:xlink="http://www.w3.org/1999/xlink" x="0px" y="0px"
	 viewBox="0 0 444.45 193.6" style="enable-background:new 0 0 444.45 193.6;" xml:space="preserve">
<style type="text/css">
	.st0{fill:#FFFFFF;}
	.st1{fill:#3D4144;}
	.st2{fill:#517CBE;}
	.st3{fill:#32A853;}
	.st4{fill:#FABB0D;}
	.st5{fill:#E84336;}
	.st6{fill:#263C7F;}
	.st7{fill:#179BD7;}
	.st8{fill:#253064;}
	.st9{fill:#F5B1C6;}
	.st10{fill:#0A0C0B;}
	.st11{fill:#6C6CB0;}
	.st12{fill:#E41522;}
	.st13{fill:#2197D5;}
	.st14{fill:#231F20;}
	.st15{fill:#020203;}
	.st16{fill:#EB621D;}
	.st17{fill:#F59E1F;}
	.st18{fill:#EE8005;}
	.st19{fill:#393A41;}
	.st20{clip-path:url(#SVGID_4_);}
	.st21{fill:url(#path10283_1_);}
	.st22{fill:#2A6CB4;}
	.st23{fill:none;}
	.st24{fill:#0A3677;}
	.st25{fill:#E30613;}
</style>
<g>
	<path id="XMLID_2_" class="st0" d="M81.21,29.08C76,35.25,67.67,40.11,59.33,39.41c-1.04-8.33,3.04-17.19,7.81-22.66
		c5.21-6.34,14.32-10.85,21.7-11.2C89.72,14.24,86.33,22.75,81.21,29.08 M88.76,41.06c-12.07-0.69-22.4,6.86-28.13,6.86
		c-5.82,0-14.59-6.51-24.13-6.34c-12.41,0.17-23.96,7.21-30.3,18.4c-13.02,22.4-3.39,55.56,9.2,73.79
		c6.16,9.03,13.54,18.93,23.27,18.58c9.2-0.35,12.85-5.99,23.96-5.99c11.2,0,14.41,5.99,24.13,5.82
		c10.07-0.17,16.41-9.03,22.57-18.06c7.03-10.24,9.9-20.23,10.07-20.75c-0.17-0.17-19.45-7.55-19.62-29.78
		c-0.17-18.58,15.19-27.43,15.89-27.95C106.99,42.8,93.45,41.41,88.76,41.06 M158.47,15.89v135.35h21.01v-46.27h29.08
		c26.57,0,45.23-18.23,45.23-44.62s-18.32-44.45-44.54-44.45L158.47,15.89L158.47,15.89z M179.48,33.6h24.22
		c18.23,0,28.65,9.72,28.65,26.83s-10.42,26.91-28.74,26.91h-24.13V33.6z M292.17,152.27c13.2,0,25.44-6.68,30.99-17.28h0.43v16.23
		h19.45V83.86c0-19.53-15.63-32.12-39.67-32.12c-22.31,0-38.81,12.76-39.41,30.3h18.93c1.56-8.33,9.29-13.8,19.88-13.8
		c12.85,0,20.05,5.99,20.05,17.02v7.47l-26.22,1.56c-24.4,1.48-37.59,11.46-37.59,28.82C259.01,140.64,272.64,152.27,292.17,152.27z
		 M297.81,136.21c-11.2,0-18.32-5.38-18.32-13.63c0-8.51,6.86-13.46,19.97-14.24l23.35-1.48v7.64
		C322.82,127.18,312.05,136.21,297.81,136.21z M369,188.04c20.49,0,30.13-7.81,38.55-31.51l36.9-103.48h-21.36L398.35,133h-0.43
		l-24.74-79.96h-21.96l35.59,98.54l-1.91,5.99c-3.21,10.16-8.42,14.06-17.71,14.06c-1.65,0-4.86-0.17-6.16-0.35v16.23
		C362.23,187.87,367.44,188.04,369,188.04z"/>
</g>
</svg>
