<?xml version="1.0" encoding="utf-8"?>
<!-- Generator: Adobe Illustrator 25.0.0, SVG Export Plug-In . SVG Version: 6.00 Build 0)  -->
<svg version="1.1" id="Ebene_1" xmlns="http://www.w3.org/2000/svg" xmlns:xlink="http://www.w3.org/1999/xlink" x="0px" y="0px"
	 viewBox="0 0 465.11 193.6" style="enable-background:new 0 0 465.11 193.6;" xml:space="preserve">
<style type="text/css">
	.st0{fill:#FFFFFF;}
	.st1{fill:#3D4144;}
	.st2{fill:#517CBE;}
	.st3{fill:#32A853;}
	.st4{fill:#FABB0D;}
	.st5{fill:#E84336;}
	.st6{fill:#263C7F;}
	.st7{fill:#179BD7;}
	.st8{fill:#253064;}
	.st9{fill:#F5B1C6;}
	.st10{fill:#0A0C0B;}
	.st11{fill:#6C6CB0;}
	.st12{fill:#E41522;}
	.st13{fill:#2197D5;}
	.st14{fill:#231F20;}
	.st15{fill:#020203;}
	.st16{fill:#EB621D;}
	.st17{fill:#F59E1F;}
	.st18{fill:#EE8005;}
	.st19{fill:#393A41;}
	.st20{clip-path:url(#SVGID_4_);}
	.st21{fill:url(#path10283_1_);}
	.st22{fill:#2A6CB4;}
	.st23{fill:none;}
	.st24{fill:#0A3677;}
	.st25{fill:#E30613;}
</style>
<g>
	<g id="G_Pay_Lockup_3_">
		<g id="Pay_Typeface_3_">
			<path id="Letter_p_3_" class="st0" d="M217.08,94.31v53.8h-17.07V15.25h45.27c11.47,0,21.25,3.82,29.26,11.47
				c8.18,7.65,12.27,16.99,12.27,28.01c0,11.29-4.09,20.63-12.27,28.19c-7.91,7.56-17.7,11.29-29.26,11.29h-28.19V94.31z
				 M217.08,31.61v46.33h28.55c6.76,0,12.45-2.31,16.9-6.85c4.54-4.54,6.85-10.05,6.85-16.27c0-6.14-2.31-11.56-6.85-16.1
				c-4.45-4.71-10.05-7.03-16.9-7.03h-28.55V31.61z"/>
			<path id="Letter_a_3_" class="st0" d="M331.45,54.2c12.63,0,22.59,3.38,29.88,10.14c7.29,6.76,10.94,16.01,10.94,27.75v56.03
				h-16.27v-12.63h-0.71c-7.03,10.4-16.45,15.56-28.19,15.56c-10.05,0-18.41-2.93-25.17-8.89c-6.76-5.96-10.14-13.34-10.14-22.23
				c0-9.43,3.56-16.9,10.67-22.41c7.11-5.6,16.63-8.36,28.46-8.36c10.14,0,18.5,1.87,24.99,5.6v-3.91c0-5.96-2.31-10.94-7.03-15.12
				c-4.71-4.18-10.23-6.23-16.54-6.23c-9.52,0-17.07,4-22.59,12.09l-15.03-9.43C302.99,60.16,315.26,54.2,331.45,54.2z
				 M309.39,120.19c0,4.45,1.87,8.18,5.69,11.12c3.74,2.93,8.18,4.45,13.25,4.45c7.2,0,13.61-2.67,19.21-8
				c5.6-5.34,8.45-11.56,8.45-18.76c-5.34-4.18-12.72-6.31-22.23-6.31c-6.94,0-12.72,1.69-17.34,4.98
				C311.7,111.12,309.39,115.3,309.39,120.19z"/>
			<path id="Letter_y_3_" class="st0" d="M465.11,57.14l-56.92,130.91h-17.61l21.17-45.8l-37.53-85.11h18.59l27.04,65.28h0.36
				l26.32-65.28H465.11z"/>
		</g>
		<g id="G_Mark_3_">
			<path id="Blue_500_3_" class="st0" d="M149.16,83.46c0-5.57-0.5-10.89-1.42-16.02H76.17v29.35l41.22,0.01
				c-1.67,9.76-7.05,18.09-15.3,23.64v19.04h24.54C140.96,126.22,149.16,106.62,149.16,83.46z"/>
			<path id="Green_500_3_" class="st0" d="M102.1,120.44c-6.83,4.61-15.63,7.3-25.91,7.3c-19.88,0-36.74-13.39-42.78-31.45H8.1
				v19.64c12.54,24.88,38.31,41.96,68.09,41.96c20.58,0,37.87-6.77,50.45-18.42L102.1,120.44z"/>
			<path id="Yellow_500_3_" class="st0" d="M31.03,81.73c0-5.07,0.84-9.97,2.38-14.58V47.51H8.1C2.92,57.8,0,69.42,0,81.73
				s2.93,23.92,8.1,34.21L33.41,96.3C31.87,91.69,31.03,86.79,31.03,81.73z"/>
			<path id="Red_500_3_" class="st0" d="M76.19,35.7c11.23,0,21.29,3.87,29.23,11.43l21.74-21.73
				C113.96,13.11,96.74,5.56,76.19,5.56c-29.77,0-55.55,17.07-68.09,41.96l25.31,19.64C39.45,49.1,56.31,35.7,76.19,35.7z"/>
		</g>
	</g>
</g>
</svg>
