<?xml version="1.0" encoding="utf-8"?>
<!-- Generator: Adobe Illustrator 25.0.0, SVG Export Plug-In . SVG Version: 6.00 Build 0)  -->
<svg version="1.1" id="Ebene_1" xmlns="http://www.w3.org/2000/svg" xmlns:xlink="http://www.w3.org/1999/xlink" x="0px" y="0px"
	 viewBox="0 0 231.19 193.6" style="enable-background:new 0 0 231.19 193.6;" xml:space="preserve">
<style type="text/css">
	.st0{fill:#FFFFFF;}
	.st1{fill:#3D4144;}
	.st2{fill:#517CBE;}
	.st3{fill:#32A853;}
	.st4{fill:#FABB0D;}
	.st5{fill:#E84336;}
	.st6{fill:#263C7F;}
	.st7{fill:#179BD7;}
	.st8{fill:#253064;}
	.st9{fill:#F5B1C6;}
	.st10{fill:#0A0C0B;}
	.st11{fill:#6C6CB0;}
	.st12{fill:#E41522;}
	.st13{fill:#2197D5;}
	.st14{fill:#231F20;}
	.st15{fill:#020203;}
	.st16{fill:#EB621D;}
	.st17{fill:#F59E1F;}
	.st18{fill:#EE8005;}
	.st19{fill:#393A41;}
	.st20{clip-path:url(#SVGID_4_);}
	.st21{fill:url(#path10283_1_);}
	.st22{fill:#2A6CB4;}
	.st23{fill:none;}
	.st24{fill:#0A3677;}
	.st25{fill:#E30613;}
</style>
<g>
	<path class="st0" d="M42.06,186.2V174.3c0-4.48-2.86-7.5-7.46-7.54c-2.42-0.04-4.92,0.71-6.67,3.37c-1.31-2.1-3.37-3.37-6.27-3.37
		c-2.02,0-4.01,0.6-5.56,2.82v-2.34h-4.13v18.97h4.17v-10.52c0-3.29,1.83-5.04,4.64-5.04c2.74,0,4.13,1.79,4.13,5v10.56h4.17v-10.52
		c0-3.29,1.9-5.04,4.64-5.04c2.82,0,4.17,1.79,4.17,5v10.56H42.06z M103.73,167.23h-6.75v-5.75h-4.17v5.75h-3.85V171h3.85v8.65
		c0,4.4,1.71,7.02,6.59,7.02c1.79,0,3.85-0.56,5.16-1.47l-1.19-3.53c-1.23,0.71-2.58,1.07-3.65,1.07c-2.06,0-2.74-1.27-2.74-3.17
		V171h6.75V167.23z M138.93,166.76c-2.38,0-3.93,1.11-5,2.78v-2.3h-4.09v18.97h4.13v-10.64c0-3.13,1.35-4.88,4.05-4.88
		c0.83,0,1.71,0.12,2.58,0.48l1.27-3.89C140.95,166.92,139.76,166.76,138.93,166.76L138.93,166.76z M85.71,168.74
		c-1.98-1.31-4.72-1.98-7.74-1.98c-4.8,0-7.9,2.3-7.9,6.07c0,3.1,2.3,5,6.55,5.6l1.94,0.28c2.26,0.32,3.33,0.91,3.33,1.98
		c0,1.47-1.51,2.3-4.33,2.3c-2.86,0-4.92-0.91-6.31-1.98l-1.94,3.21c2.26,1.67,5.12,2.46,8.21,2.46c5.48,0,8.65-2.58,8.65-6.19
		c0-3.33-2.5-5.08-6.63-5.68l-1.94-0.28c-1.79-0.24-3.21-0.59-3.21-1.86c0-1.39,1.35-2.22,3.61-2.22c2.42,0,4.76,0.91,5.91,1.63
		L85.71,168.74z M196.27,166.76c-2.38,0-3.93,1.11-5,2.78v-2.3h-4.09v18.97h4.13v-10.64c0-3.13,1.35-4.88,4.05-4.88
		c0.83,0,1.71,0.12,2.58,0.48l1.27-3.89C198.3,166.92,197.11,166.76,196.27,166.76L196.27,166.76z M143.1,176.72
		c0,5.75,4.01,9.96,10.12,9.96c2.86,0,4.76-0.64,6.83-2.26l-1.98-3.33c-1.55,1.11-3.17,1.71-4.96,1.71
		c-3.29-0.04-5.71-2.42-5.71-6.07c0-3.65,2.42-6.03,5.71-6.07c1.79,0,3.41,0.6,4.96,1.71l1.98-3.33c-2.06-1.63-3.97-2.26-6.83-2.26
		C147.1,166.76,143.1,170.97,143.1,176.72L143.1,176.72z M181.75,176.72v-9.48h-4.13v2.3c-1.31-1.71-3.29-2.78-5.99-2.78
		c-5.32,0-9.48,4.17-9.48,9.96c0,5.79,4.17,9.96,9.48,9.96c2.7,0,4.68-1.07,5.99-2.78v2.3h4.13V176.72z M166.39,176.72
		c0-3.33,2.18-6.07,5.75-6.07c3.41,0,5.71,2.62,5.71,6.07c0,3.45-2.3,6.07-5.71,6.07C168.57,182.79,166.39,180.05,166.39,176.72
		L166.39,176.72z M116.59,166.76c-5.56,0-9.45,4.05-9.45,9.96c0,6.03,4.05,9.96,9.72,9.96c2.86,0,5.48-0.71,7.78-2.66l-2.02-3.06
		c-1.59,1.27-3.61,1.98-5.52,1.98c-2.66,0-5.08-1.23-5.67-4.64h14.09c0.04-0.52,0.08-1.03,0.08-1.59
		C125.56,170.81,121.9,166.76,116.59,166.76L116.59,166.76z M116.51,170.45c2.66,0,4.37,1.67,4.8,4.6h-9.84
		C111.9,172.31,113.57,170.45,116.51,170.45L116.51,170.45z M220.05,176.72v-17.1h-4.13v9.92c-1.31-1.71-3.29-2.78-5.99-2.78
		c-5.32,0-9.48,4.17-9.48,9.96c0,5.79,4.17,9.96,9.48,9.96c2.7,0,4.68-1.07,5.99-2.78v2.3h4.13V176.72z M204.69,176.72
		c0-3.33,2.18-6.07,5.75-6.07c3.41,0,5.71,2.62,5.71,6.07c0,3.45-2.3,6.07-5.71,6.07C206.87,182.79,204.69,180.05,204.69,176.72
		L204.69,176.72z M65.31,176.72v-9.48h-4.13v2.3c-1.31-1.71-3.29-2.78-5.99-2.78c-5.32,0-9.48,4.17-9.48,9.96
		c0,5.79,4.17,9.96,9.48,9.96c2.7,0,4.68-1.07,5.99-2.78v2.3h4.13V176.72z M49.96,176.72c0-3.33,2.18-6.07,5.75-6.07
		c3.41,0,5.71,2.62,5.71,6.07c0,3.45-2.3,6.07-5.71,6.07C52.14,182.79,49.96,180.05,49.96,176.72z M226.93,183.46
		c0.27,0,0.51,0.05,0.75,0.15c0.23,0.1,0.44,0.23,0.61,0.4c0.17,0.17,0.31,0.37,0.41,0.6c0.1,0.23,0.15,0.47,0.15,0.73
		c0,0.26-0.05,0.5-0.15,0.73c-0.1,0.23-0.24,0.43-0.41,0.6c-0.17,0.17-0.38,0.31-0.61,0.41c-0.23,0.1-0.48,0.15-0.75,0.15
		c-0.27,0-0.52-0.05-0.76-0.15c-0.24-0.1-0.44-0.24-0.61-0.41c-0.17-0.17-0.31-0.37-0.41-0.6c-0.1-0.23-0.15-0.47-0.15-0.73
		c0-0.26,0.05-0.5,0.15-0.73c0.1-0.23,0.24-0.43,0.41-0.6c0.17-0.17,0.38-0.31,0.61-0.4C226.4,183.5,226.65,183.46,226.93,183.46z
		 M226.93,186.81c0.2,0,0.39-0.04,0.57-0.12c0.18-0.08,0.33-0.18,0.46-0.31c0.13-0.13,0.24-0.29,0.31-0.47
		c0.08-0.18,0.11-0.37,0.11-0.57s-0.04-0.39-0.11-0.57c-0.08-0.18-0.18-0.33-0.31-0.47c-0.13-0.13-0.29-0.24-0.46-0.31
		c-0.18-0.08-0.37-0.11-0.57-0.11c-0.21,0-0.4,0.04-0.58,0.11c-0.18,0.08-0.34,0.18-0.47,0.31c-0.13,0.13-0.24,0.29-0.31,0.47
		c-0.08,0.18-0.11,0.37-0.11,0.57s0.04,0.39,0.11,0.57c0.08,0.18,0.18,0.33,0.31,0.47c0.13,0.13,0.29,0.24,0.47,0.31
		C226.53,186.77,226.72,186.81,226.93,186.81z M227.04,184.46c0.23,0,0.4,0.05,0.52,0.15c0.12,0.1,0.18,0.24,0.18,0.41
		c0,0.14-0.05,0.26-0.15,0.36c-0.1,0.09-0.23,0.15-0.41,0.17l0.57,0.66h-0.45l-0.53-0.66h-0.17v0.66h-0.37v-1.75H227.04z
		 M226.6,184.79v0.47h0.43c0.1,0,0.18-0.02,0.24-0.06c0.06-0.04,0.09-0.1,0.09-0.18c0-0.08-0.03-0.13-0.09-0.17
		c-0.06-0.04-0.14-0.06-0.24-0.06H226.6z M224.37,123.11v-2.3h0.93v-0.47h-2.36v0.47h0.93v2.3H224.37z M228.95,123.11v-2.77h-0.72
		l-0.83,1.91l-0.83-1.91h-0.72v2.77h0.51v-2.09l0.78,1.8h0.53l0.78-1.81v2.1H228.95z M109.27,136.91c0.56,0.49,1.15,0.95,1.73,1.43
		c-11.32,7.54-24.92,11.94-39.55,11.94C31.98,150.28,0,118.29,0,78.84S31.98,7.39,71.44,7.39c14.63,0,28.22,4.4,39.55,11.94
		c-0.58,0.47-1.17,0.94-1.73,1.43C92.43,35.41,82.78,56.57,82.78,78.84C82.78,101.1,92.43,122.27,109.27,136.91z M159.75,7.39
		c-14.63,0-28.22,4.4-39.55,11.94c0.58,0.48,1.17,0.94,1.73,1.43c16.83,14.64,26.48,35.81,26.48,58.07
		c0,22.26-9.65,43.43-26.48,58.07c-0.56,0.49-1.15,0.95-1.73,1.43c11.32,7.54,24.92,11.94,39.55,11.94
		c39.46,0,71.44-31.99,71.44-71.44C231.19,39.38,199.21,7.39,159.75,7.39z M115.6,22.7c-0.92,0.72-1.82,1.47-2.7,2.24
		c-15.05,13.1-24.58,32.38-24.58,53.9c0,21.52,9.53,40.81,24.58,53.9c0.88,0.77,1.78,1.51,2.7,2.24c0.92-0.72,1.82-1.47,2.7-2.24
		c15.05-13.1,24.58-32.38,24.58-53.9c0-21.52-9.53-40.8-24.58-53.9C117.42,24.16,116.52,23.42,115.6,22.7"/>
</g>
</svg>
