<?xml version="1.0" encoding="utf-8"?>
<!-- Generator: Adobe Illustrator 25.0.0, SVG Export Plug-In . SVG Version: 6.00 Build 0)  -->
<svg version="1.1" id="Ebene_1" xmlns="http://www.w3.org/2000/svg" xmlns:xlink="http://www.w3.org/1999/xlink" x="0px" y="0px"
	 viewBox="0 0 574.91 193.6" style="enable-background:new 0 0 574.91 193.6;" xml:space="preserve">
<style type="text/css">
	.st0{fill:#FFFFFF;}
	.st1{fill:#3D4144;}
	.st2{fill:#517CBE;}
	.st3{fill:#32A853;}
	.st4{fill:#FABB0D;}
	.st5{fill:#E84336;}
	.st6{fill:#263C7F;}
	.st7{fill:#179BD7;}
	.st8{fill:#253064;}
	.st9{fill:#F5B1C6;}
	.st10{fill:#0A0C0B;}
	.st11{fill:#6C6CB0;}
	.st12{fill:#E41522;}
	.st13{fill:#2197D5;}
	.st14{fill:#231F20;}
	.st15{fill:#020203;}
	.st16{fill:#EB621D;}
	.st17{fill:#F59E1F;}
	.st18{fill:#EE8005;}
	.st19{fill:#393A41;}
	.st20{clip-path:url(#SVGID_4_);}
	.st21{fill:url(#path10283_1_);}
	.st22{fill:#2A6CB4;}
	.st23{fill:none;}
	.st24{fill:#0A3677;}
	.st25{fill:#E30613;}
</style>
<g>
	<path class="st0" d="M68.99,20.21H24.27c-3.06,0-5.66,2.22-6.14,5.24L0.05,140.12c-0.32,2.03,1.07,3.94,3.11,4.26
		c0.19,0.03,0.39,0.04,0.58,0.04h21.35c3.06,0,5.67-2.23,6.14-5.25l4.88-30.93c0.47-3.02,3.08-5.25,6.13-5.25h14.16
		c29.46,0,46.46-14.25,50.9-42.5c2-12.36,0.09-22.07-5.7-28.87C95.23,24.16,83.95,20.21,68.99,20.21z M74.15,62.09
		C71.7,78.13,59.44,78.13,47.59,78.13h-6.75l4.73-29.97c0.29-1.81,1.85-3.15,3.68-3.15h3.09c8.08,0,15.69,0,19.63,4.6
		C74.32,52.37,75.04,56.45,74.15,62.09z M202.66,61.57h-21.41c-1.83,0-3.39,1.33-3.68,3.15l-0.95,5.99l-1.5-2.17
		c-4.64-6.73-14.97-8.98-25.29-8.98c-23.66,0-43.87,17.92-47.81,43.06c-2.05,12.54,0.86,24.53,7.98,32.9
		c6.53,7.69,15.86,10.89,26.97,10.89c19.07,0,29.64-12.26,29.64-12.26l-0.95,5.95c-0.32,2.03,1.06,3.94,3.09,4.27
		c0.19,0.03,0.39,0.05,0.58,0.05h19.29c3.06,0,5.67-2.23,6.14-5.25l11.57-73.29c0.33-2.03-1.05-3.93-3.08-4.26
		C203.05,61.58,202.85,61.57,202.66,61.57z M172.81,103.25c-2.07,12.23-11.78,20.45-24.16,20.45c-6.22,0-11.19-1.99-14.38-5.77
		c-3.16-3.75-4.37-9.1-3.36-15.05c1.93-12.13,11.8-20.61,24-20.61c6.08,0,11.02,2.02,14.28,5.83
		C172.45,91.95,173.74,97.32,172.81,103.25z M316.7,61.57h-21.52c-2.06,0-3.99,1.02-5.15,2.73l-29.68,43.72L247.78,66
		c-0.79-2.63-3.22-4.43-5.96-4.43h-21.15c-2.06-0.01-3.73,1.66-3.74,3.72c0,0.41,0.07,0.82,0.2,1.21l23.7,69.56l-22.28,31.46
		c-1.19,1.68-0.8,4,0.88,5.2c0.63,0.45,1.39,0.69,2.16,0.69h21.49c2.04,0,3.95-0.99,5.11-2.67l71.57-103.31
		c1.17-1.69,0.75-4.01-0.94-5.19C318.2,61.8,317.46,61.57,316.7,61.57L316.7,61.57z"/>
	<path class="st0" d="M387.95,20.21h-44.72c-3.06,0-5.66,2.23-6.13,5.24L319,140.12c-0.32,2.03,1.06,3.94,3.09,4.26
		c0.19,0.03,0.39,0.05,0.58,0.05h22.95c2.14,0,3.96-1.56,4.29-3.67l5.13-32.5c0.47-3.02,3.08-5.25,6.13-5.25h14.15
		c29.46,0,46.46-14.25,50.9-42.5c2.01-12.36,0.08-22.07-5.71-28.87C414.18,24.16,402.91,20.21,387.95,20.21z M393.11,62.09
		c-2.44,16.05-14.7,16.05-26.56,16.05h-6.74l4.74-29.97c0.28-1.81,1.84-3.15,3.67-3.15h3.09c8.07,0,15.69,0,19.63,4.6
		C393.29,52.37,394,56.45,393.11,62.09z M521.61,61.57h-21.4c-1.83-0.01-3.4,1.33-3.67,3.15l-0.95,5.99l-1.5-2.17
		c-4.64-6.73-14.97-8.98-25.28-8.98c-23.66,0-43.87,17.92-47.8,43.06c-2.04,12.54,0.86,24.53,7.97,32.9
		c6.54,7.69,15.86,10.89,26.97,10.89c19.07,0,29.64-12.26,29.64-12.26l-0.95,5.95c-0.33,2.03,1.06,3.94,3.09,4.27
		c0.2,0.03,0.4,0.05,0.6,0.05h19.28c3.06,0,5.66-2.23,6.13-5.25l11.58-73.29c0.31-2.04-1.08-3.94-3.12-4.26
		C521.99,61.58,521.8,61.57,521.61,61.57z M491.76,103.25c-2.05,12.23-11.78,20.45-24.16,20.45c-6.21,0-11.19-1.99-14.38-5.77
		c-3.16-3.75-4.35-9.1-3.36-15.05c1.94-12.13,11.8-20.61,24-20.61c6.08,0,11.02,2.02,14.28,5.83
		C491.41,91.95,492.71,97.32,491.76,103.25z M546.85,23.35L528.5,140.12c-0.32,2.03,1.06,3.94,3.09,4.26
		c0.19,0.03,0.39,0.05,0.58,0.05h18.45c3.07,0,5.67-2.22,6.14-5.25l18.1-114.66c0.32-2.03-1.07-3.94-3.1-4.26
		c-0.19-0.03-0.38-0.05-0.58-0.05h-20.66C548.7,20.21,547.14,21.54,546.85,23.35z"/>
</g>
</svg>
