<?xml version="1.0" encoding="utf-8"?>
<!-- Generator: Adobe Illustrator 25.0.0, SVG Export Plug-In . SVG Version: 6.00 Build 0)  -->
<svg version="1.1" id="Ebene_1" xmlns="http://www.w3.org/2000/svg" xmlns:xlink="http://www.w3.org/1999/xlink" x="0px" y="0px"
	 viewBox="0 0 484.91 193.6" style="enable-background:new 0 0 484.91 193.6;" xml:space="preserve">
<style type="text/css">
	.st0{fill:#FFFFFF;}
	.st1{fill:#3D4144;}
	.st2{fill:#517CBE;}
	.st3{fill:#32A853;}
	.st4{fill:#FABB0D;}
	.st5{fill:#E84336;}
	.st6{fill:#263C7F;}
	.st7{fill:#179BD7;}
	.st8{fill:#253064;}
	.st9{fill:#F5B1C6;}
	.st10{fill:#0A0C0B;}
	.st11{fill:#6C6CB0;}
	.st12{fill:#E41522;}
	.st13{fill:#2197D5;}
	.st14{fill:#231F20;}
	.st15{fill:#020203;}
	.st16{fill:#EB621D;}
	.st17{fill:#F59E1F;}
	.st18{fill:#EE8005;}
	.st19{fill:#393A41;}
	.st20{clip-path:url(#SVGID_4_);}
	.st21{fill:url(#path10283_1_);}
	.st22{fill:#2A6CB4;}
	.st23{fill:none;}
	.st24{fill:#0A3677;}
	.st25{fill:#E30613;}
</style>
<g id="layer1_7_" transform="translate(85.788367,-282.23124)">
	<path id="path66_3_" class="st0" d="M74.9,303.72c-6.65,0-13.09,1.53-19.14,4.38c-8.64,4.09-16.49,10.92-22.89,19.98
		c-4.16,5.88-7.72,12.7-10.5,20.32c-5.25,14.39-5.2,26.07,0.18,33.76c3.05,4.35,9.38,9.54,22.25,9.56h0.05
		c23.45,0,40.96-15.37,52.05-45.69c2.93-8.02,6.79-22.99-0.27-33.1C92.36,306.83,85.06,303.73,74.9,303.72L74.9,303.72z
		 M216.41,303.72c-6.64,0-13.09,1.53-19.14,4.38c-8.65,4.09-16.48,10.92-22.88,19.98c-4.16,5.88-7.72,12.7-10.51,20.32
		c-5.26,14.39-5.2,26.07,0.18,33.76c3.04,4.35,9.37,9.54,22.25,9.56h0.04c23.46,0,40.97-15.37,52.05-45.69
		c2.94-8.02,6.79-22.99-0.26-33.1C233.87,306.83,226.57,303.73,216.41,303.72z M-0.42,304.94c-7.72,0-15.22,0-21.93,3.41
		c-6.71,3.41-12.65,10.23-17.21,23.87c-0.99,2.93-1.51,5.46-1.58,7.65c-0.07,2.2,0.31,4.07,1.15,5.7c1.03,1.98,2.69,3.85,4.77,5.42
		c2.09,1.58,4.58,2.86,7.27,3.67c0.1,0.03,1.51,0.43,3.23,0.92c1.7,0.49,3.7,1.08,4.96,1.46c0.74,0.23,1.55,0.52,2.29,0.97
		c0.74,0.44,1.4,1.02,1.82,1.84c0.27,0.54,0.42,1.13,0.44,1.76c0.02,0.64-0.09,1.32-0.34,2.05c-0.63,1.85-1.58,3.05-3.39,3.78
		c-1.8,0.73-4.46,0.96-8.5,0.99h-50.37l-7.96,21.88h53.92c5.07,0,14.35,0,23.26-3.79c8.91-3.79,17.46-11.35,21.08-26.5
		c1.36-5.69,0.94-10.33-1.29-13.97c-2.24-3.64-6.28-6.28-12.17-7.97c0,0-1.32-0.38-2.87-0.83c-1.54-0.45-3.33-0.95-4.24-1.22
		c-1.51-0.43-2.67-1.3-3.35-2.41c-0.68-1.11-0.89-2.45-0.5-3.83c0.41-1.43,1.39-2.57,2.8-3.36c1.42-0.78,3.28-1.21,5.46-1.21h31.34
		c0.22-0.32,0.42-0.67,0.64-0.98c5.72-8.1,12.65-14.65,20.25-19.28H-0.42z M140.45,304.94c-13.95,0-24.33,7.06-29.23,20.26
		l-23.69,65.1h25.96l12.17-33.46l22.94,0.02l6.53-17.92l-22.86-0.02l3.68-10.38c0.76-1.86,2.6-3.34,5.28-3.34
		c1.49,0,18.33,0,27.05,0.01c0.23-0.32,0.43-0.67,0.65-0.99c5.72-8.1,13.83-14.65,21.42-19.28H140.45L140.45,304.94z M260.87,304.99
		l-31.08,85.37h26.4l11.3-30.05c0.55,1.24,7.22,30.05,7.22,30.05h27.76c0,0-5.05-21.17-8.76-29.72c-0.95-2.2-1.95-4.66-3.28-6.72
		c7.84-2.91,19.2-9.17,23.91-21.84c2.89-7.79,2.72-14.09-0.49-18.71c-3.89-5.61-11.82-8.36-24.23-8.37H260.87L260.87,304.99z
		 M315.02,304.99c1.67,1.32,3.11,2.83,4.31,4.55c3.07,4.43,4.25,9.69,3.55,15.72h15.72l-23.69,65.12h23.67l23.71-65.12h30.42
		l7.38-20.27H315.02z M278.26,322.61h4.36c7.97,0.01,10.94,2.34,8.24,9.61c-2.53,6.83-7.09,11.04-15.74,11.04h-0.03l-4.48,0
		L278.26,322.61L278.26,322.61z M68.67,323.03L68.67,323.03c8.11,0.01,9.97,4.71,2.85,24.19h0c-7.32,20.02-12.62,25.06-20.62,25.06
		h-0.02c-7.79,0-10.52-4.93-3.23-24.86C53.1,332.55,60.14,323.03,68.67,323.03L68.67,323.03z M210.18,323.03L210.18,323.03
		c8.11,0.01,9.97,4.71,2.85,24.19c-7.31,20.02-12.62,25.06-20.61,25.06h-0.02c-7.79,0-10.51-4.93-3.23-24.86
		C194.61,332.55,201.66,323.03,210.18,323.03L210.18,323.03z"/>
	<path id="path98_3_" class="st0" d="M-60.12,399.35c-1.66,0-2.9,0.3-3.74,0.9c-0.83,0.61-1.52,1.68-2.09,3.23
		c-0.54,1.49-0.63,2.52-0.25,3.11c0.38,0.59,1.4,0.89,3.08,0.89c1.68,0,2.93-0.3,3.76-0.92c0.82-0.61,1.51-1.68,2.07-3.21
		c0.55-1.51,0.64-2.55,0.27-3.13C-57.38,399.64-58.42,399.35-60.12,399.35z M-45.81,399.35c-1.68,0-2.93,0.3-3.75,0.9
		c-0.82,0.61-1.51,1.68-2.08,3.23c-0.54,1.49-0.63,2.52-0.26,3.11c0.37,0.59,1.39,0.89,3.07,0.89c1.68,0,2.93-0.3,3.77-0.92
		c0.83-0.61,1.53-1.68,2.09-3.21c0.55-1.51,0.63-2.55,0.26-3.13C-43.1,399.64-44.13,399.35-45.81,399.35z M221.4,410.45
		c-1.95,0-3.88,0.25-5.8,0.75c-1.92,0.5-3.7,1.26-5.35,2.28c-1.65,1.02-3.12,2.29-4.44,3.83c-1.31,1.54-2.34,3.33-3.08,5.36
		c-0.65,1.77-0.93,3.29-0.87,4.55c0.06,1.26,0.34,2.37,0.85,3.29c0.5,0.93,1.17,1.72,2,2.39c0.83,0.67,1.71,1.26,2.65,1.78
		c0.95,0.52,1.87,1.03,2.77,1.49c0.9,0.47,1.67,0.97,2.31,1.51c0.65,0.53,1.11,1.15,1.38,1.83c0.27,0.69,0.24,1.51-0.11,2.47
		c-0.3,0.83-0.73,1.58-1.28,2.26c-0.55,0.68-1.2,1.25-1.94,1.7c-0.75,0.46-1.58,0.82-2.5,1.07c-0.92,0.25-1.9,0.38-2.95,0.38
		c-1.6,0-2.93-0.18-4.01-0.54c-1.08-0.36-1.98-0.76-2.69-1.19c-0.71-0.44-1.28-0.83-1.7-1.2c-0.43-0.36-0.8-0.54-1.11-0.54
		c-0.22,0-0.43,0.06-0.64,0.18c-0.21,0.12-0.41,0.32-0.61,0.6s-0.41,0.66-0.62,1.12c-0.21,0.46-0.45,1.03-0.69,1.7
		c-0.37,1.01-0.59,1.78-0.66,2.31c-0.08,0.53-0.02,0.95,0.16,1.23c0.17,0.28,0.52,0.61,1.03,0.98c0.5,0.37,1.18,0.72,2.02,1.06
		c0.84,0.34,1.84,0.63,3.01,0.87c1.17,0.24,2.49,0.36,3.95,0.36c2.16,0,4.3-0.28,6.4-0.85c2.11-0.57,4.07-1.42,5.9-2.54
		c1.83-1.12,3.46-2.52,4.91-4.21c1.44-1.68,2.57-3.63,3.38-5.86c0.62-1.7,0.9-3.18,0.83-4.44c-0.07-1.25-0.36-2.35-0.87-3.28
		c-0.51-0.93-1.19-1.72-2.05-2.39c-0.85-0.66-1.75-1.26-2.69-1.78c-0.94-0.52-1.87-1.02-2.8-1.49c-0.92-0.47-1.71-0.98-2.38-1.51
		c-0.67-0.53-1.14-1.15-1.4-1.83c-0.26-0.69-0.22-1.5,0.12-2.44c0.23-0.63,0.56-1.23,1.01-1.8c0.43-0.57,0.95-1.05,1.57-1.45
		s1.31-0.72,2.1-0.95c0.78-0.23,1.65-0.34,2.59-0.34c1.2,0,2.25,0.14,3.15,0.44c0.9,0.29,1.66,0.62,2.29,0.98
		c0.63,0.36,1.16,0.69,1.57,1c0.42,0.31,0.75,0.46,0.98,0.46c0.24,0,0.46-0.06,0.65-0.2c0.19-0.13,0.38-0.34,0.56-0.62
		c0.18-0.28,0.36-0.65,0.55-1.08c0.19-0.43,0.41-0.97,0.64-1.6c0.21-0.57,0.37-1.05,0.48-1.42c0.12-0.39,0.2-0.7,0.24-0.95
		c0.03-0.25,0.04-0.45,0.02-0.61c-0.02-0.15-0.1-0.34-0.24-0.56s-0.49-0.49-1.04-0.82c-0.56-0.33-1.23-0.62-2.01-0.89
		c-0.77-0.26-1.64-0.47-2.58-0.62C223.38,410.53,222.4,410.45,221.4,410.45L221.4,410.45z M357.42,410.48
		c-3.34,0-6.55,0.51-9.65,1.54c-3.1,1.03-5.95,2.5-8.58,4.44c-2.62,1.93-4.97,4.28-7.02,7.04c-2.05,2.77-3.71,5.88-4.98,9.35
		c-1.22,3.36-1.83,6.37-1.8,9.02c0.01,2.65,0.61,4.91,1.79,6.75c1.19,1.85,2.94,3.25,5.26,4.23c2.32,0.97,5.17,1.45,8.56,1.45
		c1.16,0,2.33-0.05,3.52-0.16c1.19-0.11,2.38-0.27,3.58-0.49c1.21-0.22,2.39-0.48,3.55-0.79c1.16-0.31,2.14-0.6,2.96-0.88
		c0.81-0.29,1.42-0.68,1.84-1.17c0.4-0.49,0.73-1.06,0.97-1.72l6.14-16.87c0.16-0.44,0.25-0.83,0.26-1.17
		c0.01-0.34-0.03-0.63-0.16-0.87c-0.12-0.24-0.29-0.42-0.52-0.54c-0.23-0.12-0.52-0.19-0.87-0.19h-14.31c-0.2,0-0.39,0.06-0.59,0.19
		c-0.2,0.12-0.39,0.3-0.6,0.56c-0.2,0.25-0.4,0.58-0.61,1c-0.21,0.41-0.42,0.93-0.64,1.53c-0.43,1.19-0.63,2.02-0.59,2.51
		c0.04,0.49,0.26,0.74,0.65,0.74h8.03l-3.58,9.82c-0.96,0.44-1.96,0.76-2.98,0.98c-1.01,0.22-2.01,0.33-2.97,0.33
		c-1.97,0-3.65-0.32-5.05-0.95c-1.4-0.64-2.45-1.57-3.15-2.82c-0.71-1.24-1.04-2.79-1.02-4.63c0.03-1.85,0.48-3.99,1.37-6.41
		c0.8-2.21,1.86-4.22,3.15-6.04c1.29-1.82,2.77-3.38,4.42-4.69c1.66-1.3,3.44-2.3,5.36-3.01c1.92-0.71,3.9-1.06,5.96-1.06
		c1.92,0,3.54,0.2,4.85,0.59c1.3,0.39,2.4,0.82,3.29,1.28c0.88,0.46,1.56,0.89,2.05,1.28c0.49,0.39,0.88,0.59,1.16,0.59
		c0.19,0,0.38-0.05,0.56-0.16c0.19-0.11,0.37-0.3,0.57-0.57c0.2-0.27,0.4-0.64,0.62-1.1c0.23-0.46,0.45-1,0.68-1.64
		c0.4-1.09,0.63-1.91,0.7-2.47c0.08-0.55,0.02-0.98-0.16-1.29c-0.19-0.31-0.57-0.67-1.16-1.08c-0.59-0.41-1.39-0.8-2.39-1.16
		c-0.99-0.36-2.19-0.67-3.61-0.92C360.88,410.61,359.25,410.48,357.42,410.48z M89.66,411c-1.12,0-1.99,0.03-2.63,0.09
		c-0.64,0.05-1.14,0.2-1.5,0.44c-0.36,0.24-0.61,0.58-0.75,1.03c-0.14,0.45-0.25,1.06-0.35,1.85l-3.83,36.97
		c-0.06,0.53-0.05,0.95,0.03,1.26c0.08,0.31,0.31,0.55,0.69,0.72c0.38,0.16,0.93,0.27,1.67,0.33c0.73,0.05,1.73,0.08,3,0.08
		c1.2,0,2.18-0.02,2.93-0.08c0.75-0.05,1.38-0.17,1.87-0.35c0.48-0.17,0.89-0.42,1.2-0.73c0.31-0.31,0.61-0.73,0.91-1.23
		l16.19-26.86h0.06l-2.99,26.86c-0.08,0.53-0.08,0.95,0,1.26c0.08,0.31,0.31,0.55,0.69,0.72c0.38,0.16,0.93,0.27,1.66,0.33
		c0.73,0.05,1.72,0.08,2.97,0.08c1.11,0,2.04-0.02,2.78-0.08c0.74-0.05,1.37-0.17,1.89-0.33c0.52-0.17,0.96-0.41,1.29-0.72
		c0.35-0.32,0.69-0.73,1-1.26l23.15-36.88c0.49-0.81,0.84-1.45,1.04-1.91c0.2-0.48,0.22-0.83,0.07-1.07c-0.16-0.24-0.48-0.39-1-0.44
		c-0.52-0.06-1.26-0.09-2.21-0.09c-1.03,0-1.84,0.03-2.43,0.09c-0.59,0.05-1.06,0.15-1.42,0.29c-0.35,0.14-0.64,0.34-0.83,0.59
		c-0.2,0.25-0.4,0.55-0.59,0.9L115,445.24h-0.06l3.74-32.23c0.07-0.43,0.08-0.78,0.02-1.05c-0.06-0.25-0.23-0.46-0.52-0.6
		c-0.29-0.14-0.73-0.24-1.34-0.28c-0.61-0.04-1.43-0.07-2.48-0.07c-0.98,0-1.78,0.03-2.39,0.09c-0.61,0.05-1.11,0.15-1.5,0.29
		c-0.39,0.14-0.71,0.34-0.94,0.6c-0.24,0.26-0.47,0.61-0.71,1.01l-19.46,32.23h-0.03l4.38-32.46c0.09-0.42,0.12-0.73,0.09-0.97
		c-0.02-0.23-0.17-0.41-0.43-0.52c-0.26-0.12-0.69-0.2-1.27-0.23C91.49,411.02,90.69,411,89.66,411L89.66,411z M191.87,411.01
		c-0.83,0-1.53,0.03-2.1,0.1c-0.57,0.07-1.04,0.16-1.42,0.26c-0.38,0.11-0.67,0.25-0.88,0.43c-0.21,0.18-0.35,0.37-0.43,0.59
		l-14.56,40.02c-0.08,0.22-0.08,0.42,0,0.59c0.07,0.17,0.25,0.31,0.54,0.42c0.29,0.11,0.7,0.2,1.23,0.26
		c0.53,0.06,1.21,0.1,2.04,0.1c0.85,0,1.56-0.03,2.14-0.1c0.57-0.06,1.04-0.15,1.4-0.26c0.37-0.11,0.66-0.25,0.87-0.42
		c0.2-0.18,0.34-0.37,0.42-0.59l14.57-40.02c0.08-0.22,0.08-0.41,0-0.59c-0.08-0.18-0.26-0.32-0.55-0.43
		c-0.28-0.11-0.69-0.2-1.21-0.26C193.41,411.04,192.72,411.01,191.87,411.01L191.87,411.01z M-70.16,411.01
		c-0.85,0-1.56,0.04-2.13,0.1c-0.57,0.07-1.04,0.16-1.42,0.26c-0.38,0.11-0.67,0.25-0.86,0.43c-0.2,0.17-0.33,0.37-0.42,0.59
		l-9.38,25.78c-0.98,2.71-1.46,5.07-1.42,7.09c0.04,2.02,0.54,3.71,1.52,5.06c0.97,1.36,2.39,2.37,4.27,3.03
		c1.87,0.67,4.14,1,6.81,1c2.84,0,5.48-0.37,7.94-1.11c2.45-0.74,4.68-1.82,6.68-3.24c2-1.42,3.76-3.15,5.27-5.21
		c1.51-2.05,2.74-4.37,3.69-6.97l9.25-25.42c0.08-0.22,0.08-0.42,0.01-0.59c-0.06-0.18-0.24-0.32-0.53-0.43
		c-0.29-0.11-0.68-0.2-1.2-0.26c-0.51-0.06-1.18-0.1-2.01-0.1c-0.83,0-1.53,0.04-2.11,0.1c-0.58,0.07-1.05,0.16-1.42,0.26
		c-0.37,0.11-0.65,0.25-0.84,0.43c-0.2,0.17-0.33,0.37-0.41,0.59l-9.29,25.52c-0.54,1.48-1.23,2.81-2.05,3.98
		c-0.83,1.17-1.76,2.15-2.8,2.94c-1.03,0.8-2.16,1.4-3.38,1.82c-1.21,0.41-2.5,0.62-3.85,0.62c-1.34,0-2.47-0.2-3.4-0.61
		c-0.93-0.41-1.64-1.01-2.12-1.82c-0.48-0.81-0.7-1.83-0.67-3.07c0.03-1.23,0.36-2.69,0.97-4.37l9.11-25.02
		c0.08-0.22,0.08-0.42,0-0.59c-0.08-0.18-0.26-0.32-0.55-0.43c-0.29-0.11-0.7-0.2-1.21-0.26
		C-68.66,411.04-69.33,411.01-70.16,411.01L-70.16,411.01z M247.61,411.01c-0.85,0-1.56,0.03-2.13,0.1
		c-0.57,0.06-1.04,0.15-1.42,0.26c-0.38,0.11-0.67,0.26-0.86,0.43c-0.2,0.18-0.33,0.37-0.41,0.59l-9.38,25.77
		c-0.98,2.71-1.46,5.07-1.42,7.09c0.03,2.02,0.54,3.71,1.51,5.06c0.97,1.36,2.4,2.37,4.28,3.03c1.87,0.67,4.14,1,6.81,1
		c2.84,0,5.48-0.37,7.94-1.11c2.45-0.74,4.68-1.82,6.68-3.24c2-1.42,3.76-3.15,5.27-5.21c1.51-2.05,2.74-4.38,3.69-6.97l9.25-25.42
		c0.08-0.22,0.08-0.42,0.01-0.59c-0.07-0.17-0.24-0.31-0.53-0.43c-0.29-0.11-0.69-0.2-1.2-0.26c-0.51-0.06-1.18-0.1-2.01-0.1
		c-0.83,0-1.53,0.03-2.12,0.1c-0.58,0.06-1.05,0.15-1.42,0.26c-0.37,0.11-0.65,0.26-0.84,0.43c-0.2,0.18-0.33,0.37-0.41,0.59
		l-9.29,25.51c-0.54,1.48-1.23,2.81-2.05,3.98c-0.83,1.17-1.76,2.15-2.8,2.94c-1.03,0.8-2.16,1.4-3.38,1.82
		c-1.22,0.42-2.51,0.63-3.86,0.63c-1.33,0-2.46-0.2-3.4-0.61c-0.93-0.41-1.64-1.01-2.13-1.82c-0.48-0.81-0.71-1.83-0.67-3.07
		c0.03-1.23,0.36-2.69,0.97-4.37l9.1-25.02c0.08-0.22,0.08-0.42,0-0.59c-0.07-0.17-0.26-0.31-0.54-0.43
		c-0.29-0.11-0.7-0.2-1.21-0.26C249.11,411.04,248.44,411.01,247.61,411.01L247.61,411.01z M321.26,411.07
		c-0.79,0-1.44,0.03-1.97,0.08c-0.52,0.05-0.95,0.15-1.31,0.28c-0.35,0.13-0.63,0.28-0.82,0.46c-0.2,0.18-0.33,0.37-0.41,0.59
		l-7.24,19.88c-0.54,1.51-1.1,3.09-1.67,4.75c-0.57,1.66-1.11,3.26-1.59,4.78h-0.04c-0.08-0.88-0.16-1.75-0.26-2.62
		c-0.1-0.88-0.2-1.76-0.3-2.67c-0.11-0.91-0.23-1.81-0.37-2.72c-0.14-0.91-0.28-1.83-0.42-2.77l-2.62-15.49
		c-0.1-0.85-0.25-1.57-0.43-2.14c-0.19-0.58-0.44-1.03-0.76-1.36c-0.33-0.33-0.75-0.57-1.27-0.71c-0.51-0.14-1.19-0.21-2.02-0.21
		h-4.62c-0.87,0-1.7,0.26-2.49,0.77c-0.79,0.51-1.37,1.28-1.74,2.31l-13.86,38.09c-0.08,0.22-0.1,0.42-0.06,0.59
		c0.05,0.17,0.2,0.32,0.43,0.44c0.24,0.12,0.6,0.22,1.08,0.28c0.48,0.06,1.1,0.1,1.86,0.1c0.78,0,1.44-0.03,1.97-0.1
		c0.52-0.07,0.96-0.16,1.29-0.28c0.34-0.12,0.6-0.26,0.79-0.44c0.18-0.18,0.31-0.38,0.39-0.59l8.08-22.17
		c0.6-1.66,1.17-3.27,1.69-4.83c0.53-1.56,1.03-3.13,1.52-4.7h0.06c0.03,1.29,0.12,2.62,0.26,3.98c0.13,1.36,0.29,2.63,0.47,3.81
		l3.33,19.81c0.15,1.09,0.32,1.98,0.5,2.67c0.19,0.69,0.45,1.23,0.76,1.64c0.33,0.41,0.73,0.69,1.23,0.84
		c0.5,0.16,1.14,0.23,1.91,0.23h3.66c0.42,0,0.85-0.06,1.3-0.18c0.45-0.12,0.87-0.31,1.26-0.57c0.39-0.26,0.74-0.59,1.06-0.98
		c0.32-0.4,0.57-0.84,0.75-1.35l13.87-38.09c0.08-0.22,0.1-0.42,0.05-0.59c-0.04-0.17-0.18-0.32-0.41-0.46
		c-0.23-0.13-0.58-0.22-1.06-0.28C322.61,411.1,322,411.07,321.26,411.07L321.26,411.07z M15.46,411.2c-0.72,0-1.41,0.21-2.06,0.64
		c-0.65,0.43-1.14,1.12-1.49,2.08l-13.45,36.94c-0.35,0.96-0.35,1.66-0.02,2.08c0.34,0.43,0.87,0.64,1.58,0.64h21.29
		c0.2,0,0.4-0.06,0.61-0.19c0.2-0.12,0.41-0.3,0.61-0.57c0.21-0.26,0.41-0.61,0.63-1.03c0.21-0.43,0.43-0.96,0.66-1.59
		c0.23-0.63,0.39-1.17,0.5-1.59c0.1-0.43,0.14-0.77,0.13-1.04c-0.01-0.26-0.08-0.45-0.2-0.57c-0.12-0.11-0.28-0.18-0.47-0.18H8.51
		l4.35-11.95h12.81c0.2,0,0.4-0.05,0.6-0.17c0.2-0.11,0.4-0.29,0.6-0.54c0.2-0.25,0.41-0.58,0.61-1c0.21-0.42,0.43-0.94,0.66-1.57
		c0.23-0.61,0.39-1.13,0.49-1.56c0.1-0.42,0.14-0.76,0.12-1.01c-0.01-0.25-0.08-0.44-0.21-0.56c-0.12-0.12-0.27-0.18-0.47-0.18
		h-12.8l3.76-10.35h15.13c0.2,0,0.4-0.06,0.59-0.18c0.2-0.12,0.4-0.31,0.6-0.57c0.21-0.26,0.41-0.61,0.62-1.03
		c0.21-0.42,0.43-0.94,0.65-1.56c0.24-0.65,0.41-1.19,0.51-1.62c0.1-0.42,0.15-0.77,0.14-1.05c-0.01-0.27-0.07-0.46-0.19-0.57
		c-0.11-0.11-0.26-0.17-0.46-0.17L15.46,411.2L15.46,411.2z M51,411.2c-0.72,0-1.4,0.21-2.05,0.64c-0.65,0.43-1.15,1.12-1.49,2.08
		l-14.01,38.49c-0.08,0.22-0.09,0.42-0.02,0.59c0.07,0.18,0.24,0.32,0.54,0.43c0.28,0.11,0.7,0.2,1.23,0.26
		c0.53,0.06,1.21,0.1,2.04,0.1c0.85,0,1.56-0.03,2.13-0.1c0.57-0.06,1.04-0.16,1.4-0.26c0.37-0.11,0.66-0.25,0.86-0.43
		c0.2-0.17,0.35-0.37,0.43-0.59l5.88-16.15h2.69c0.91,0,1.67,0.14,2.27,0.43c0.59,0.28,1.06,0.7,1.39,1.26s0.56,1.25,0.7,2.08
		c0.14,0.83,0.24,1.78,0.31,2.85l0.35,9.46c-0.01,0.26,0.02,0.49,0.08,0.67c0.07,0.19,0.24,0.34,0.51,0.46
		c0.27,0.12,0.67,0.2,1.2,0.24c0.53,0.04,1.25,0.07,2.17,0.07c1.09,0,1.96-0.02,2.61-0.07c0.65-0.04,1.15-0.12,1.52-0.23
		c0.37-0.11,0.63-0.25,0.77-0.41c0.15-0.16,0.26-0.37,0.35-0.61c0.08-0.22,0.13-0.52,0.16-0.9c0.03-0.38,0.03-0.99,0.01-1.82
		l-0.53-8.35c-0.05-1-0.15-1.9-0.29-2.7c-0.14-0.79-0.35-1.51-0.62-2.13c-0.26-0.62-0.59-1.15-0.99-1.59
		c-0.4-0.44-0.85-0.81-1.38-1.11c1.46-0.42,2.83-0.97,4.1-1.64c1.27-0.68,2.42-1.47,3.46-2.39c1.03-0.92,1.94-1.95,2.73-3.12
		c0.78-1.17,1.43-2.46,1.95-3.88c0.61-1.68,0.9-3.17,0.88-4.48c-0.03-1.3-0.35-2.42-0.95-3.37c-0.6-0.95-1.48-1.72-2.64-2.31
		c-1.15-0.59-2.53-1.01-4.15-1.25c-0.56-0.06-1.19-0.12-1.9-0.16c-0.71-0.04-1.61-0.07-2.72-0.07L51,411.2L51,411.2z M154.48,411.2
		c-0.72,0-1.41,0.21-2.05,0.64c-0.65,0.43-1.15,1.12-1.49,2.08l-13.45,36.94c-0.35,0.96-0.36,1.66-0.02,2.08
		c0.34,0.43,0.87,0.64,1.59,0.64h21.29c0.2,0,0.4-0.06,0.61-0.19c0.21-0.12,0.41-0.3,0.61-0.57c0.22-0.26,0.42-0.61,0.63-1.03
		c0.21-0.43,0.43-0.96,0.66-1.59h0c0.23-0.63,0.4-1.17,0.5-1.59c0.09-0.43,0.14-0.77,0.12-1.04c-0.01-0.26-0.08-0.45-0.2-0.57
		c-0.12-0.11-0.28-0.18-0.47-0.18h-15.26l4.35-11.95h12.81c0.2,0,0.4-0.05,0.6-0.17c0.21-0.11,0.41-0.29,0.61-0.54s0.4-0.58,0.61-1
		c0.21-0.42,0.43-0.94,0.66-1.57c0.22-0.61,0.38-1.13,0.48-1.56c0.1-0.42,0.15-0.76,0.13-1.01c-0.01-0.25-0.09-0.44-0.2-0.56
		c-0.12-0.12-0.28-0.18-0.48-0.18h-12.81l3.77-10.35h15.13c0.2,0,0.4-0.06,0.6-0.18c0.19-0.12,0.4-0.31,0.6-0.57
		c0.21-0.26,0.42-0.61,0.62-1.03c0.22-0.42,0.43-0.94,0.66-1.56c0.24-0.65,0.4-1.19,0.5-1.62c0.1-0.42,0.15-0.77,0.14-1.05
		c-0.01-0.27-0.07-0.46-0.19-0.57c-0.11-0.11-0.26-0.17-0.47-0.17L154.48,411.2L154.48,411.2z M-25.19,411.21
		c-0.72,0-1.41,0.21-2.05,0.64c-0.65,0.43-1.14,1.12-1.49,2.08l-13.45,36.94c-0.35,0.96-0.36,1.65-0.02,2.08
		c0.34,0.43,0.87,0.64,1.59,0.64h11.27c1.7,0,3.29-0.1,4.75-0.31c1.46-0.21,2.88-0.53,4.26-0.97c1.38-0.44,2.7-0.99,3.97-1.67
		c1.26-0.68,2.42-1.48,3.5-2.42c1.07-0.94,2.04-2.03,2.9-3.25c0.86-1.22,1.57-2.58,2.12-4.09c0.52-1.44,0.78-2.74,0.76-3.9
		c-0.02-1.16-0.25-2.16-0.69-3.03c-0.44-0.86-1.07-1.57-1.89-2.12c-0.82-0.54-1.78-0.93-2.9-1.15c1.06-0.35,2.07-0.81,3.01-1.38
		c0.94-0.57,1.79-1.22,2.57-1.96c0.77-0.74,1.45-1.57,2.04-2.47c0.59-0.91,1.07-1.87,1.45-2.9c0.67-1.83,0.92-3.43,0.76-4.78
		c-0.16-1.36-0.7-2.48-1.61-3.36c-0.91-0.89-2.19-1.55-3.83-1.98c-1.64-0.44-3.76-0.65-6.36-0.65H-25.19z M-21.64,417.66h4.35
		c1.33,0,2.35,0.12,3.06,0.36c0.71,0.24,1.24,0.58,1.61,1.03c0.36,0.45,0.55,1.01,0.56,1.68c0.01,0.68-0.13,1.44-0.44,2.29
		c-0.28,0.77-0.67,1.49-1.16,2.18c-0.49,0.69-1.08,1.29-1.76,1.8c-0.68,0.51-1.44,0.92-2.29,1.21c-0.85,0.29-1.9,0.45-3.14,0.45
		h-4.81C-25.65,428.67-21.64,417.66-21.64,417.66z M54.66,417.79h3.86c0.98,0,1.74,0.04,2.28,0.1c0.53,0.06,0.99,0.15,1.39,0.25
		c1.3,0.4,2.09,1.07,2.37,2.04c0.28,0.96,0.17,2.14-0.34,3.54c-0.34,0.92-0.79,1.75-1.37,2.49c-0.57,0.74-1.27,1.39-2.07,1.92
		c-0.81,0.53-1.72,0.94-2.75,1.24c-1.02,0.29-2.14,0.44-3.37,0.44h-4.39L54.66,417.79z M-27.94,434.95h5.11
		c1.57,0,2.8,0.14,3.68,0.43c0.88,0.28,1.54,0.69,1.99,1.21c0.44,0.52,0.68,1.18,0.72,1.95c0.05,0.77-0.11,1.65-0.46,2.64
		c-0.34,0.95-0.81,1.78-1.42,2.51c-0.61,0.73-1.3,1.34-2.08,1.83c-0.78,0.49-1.63,0.86-2.54,1.12c-0.91,0.25-1.96,0.37-3.16,0.37
		h-6.22L-27.94,434.95z"/>
</g>
</svg>
