<?xml version="1.0" encoding="utf-8"?>
<!-- Generator: Adobe Illustrator 25.0.0, SVG Export Plug-In . SVG Version: 6.00 Build 0)  -->
<svg version="1.1" id="Ebene_1" xmlns="http://www.w3.org/2000/svg" xmlns:xlink="http://www.w3.org/1999/xlink" x="0px" y="0px"
	 viewBox="0 0 464.9 193.6" style="enable-background:new 0 0 464.9 193.6;" xml:space="preserve">
<style type="text/css">
	.st0{fill:#FFFFFF;}
	.st1{fill:#3D4144;}
	.st2{fill:#517CBE;}
	.st3{fill:#32A853;}
	.st4{fill:#FABB0D;}
	.st5{fill:#E84336;}
	.st6{fill:#263C7F;}
	.st7{fill:#179BD7;}
	.st8{fill:#253064;}
	.st9{fill:#F5B1C6;}
	.st10{fill:#0A0C0B;}
	.st11{fill:#6C6CB0;}
	.st12{fill:#E41522;}
	.st13{fill:#2197D5;}
	.st14{fill:#231F20;}
	.st15{fill:#020203;}
	.st16{fill:#EB621D;}
	.st17{fill:#F59E1F;}
	.st18{fill:#EE8005;}
	.st19{fill:#393A41;}
	.st20{clip-path:url(#SVGID_4_);}
	.st21{fill:url(#path10283_1_);}
	.st22{fill:#2A6CB4;}
	.st23{fill:none;}
	.st24{fill:#0A3677;}
	.st25{fill:#E30613;}
</style>
<g id="layer1_6_" transform="translate(-333.70157,-536.42431)">
	<g id="g10267_1_" transform="matrix(4.9846856,0,0,-4.9846856,-1470.1185,1039.6264)">
		<g>
			<defs>
				<path id="SVGID_1_" d="M410.11,86.96c-0.05-4.2,3.74-6.54,6.6-7.93c2.94-1.43,3.92-2.34,3.91-3.62
					c-0.02-1.95-2.34-2.82-4.51-2.85c-3.79-0.06-5.99,1.02-7.74,1.84L407,68.02c1.76-0.81,5.01-1.52,8.38-1.55
					c7.91,0,13.09,3.91,13.12,9.96c0.03,7.69-10.63,8.11-10.56,11.55c0.03,1.04,1.02,2.15,3.2,2.44c1.08,0.14,4.06,0.25,7.43-1.3
					l1.32,6.18c-1.81,0.66-4.15,1.29-7.05,1.29C415.39,96.59,410.15,92.63,410.11,86.96 M442.62,96.06c-1.45,0-2.66-0.84-3.21-2.14
					l-11.31-27h7.91l1.57,4.35h9.66l0.91-4.35h6.97l-6.08,29.13H442.62 M443.73,88.19l2.28-10.94h-6.25L443.73,88.19 M400.52,96.06
					l-6.23-29.13h7.54l6.23,29.13H400.52 M389.37,96.06l-7.84-19.83l-3.17,16.86c-0.37,1.88-1.84,2.97-3.48,2.97h-12.82l-0.18-0.85
					c2.63-0.57,5.62-1.49,7.44-2.48c1.11-0.6,1.43-1.13,1.79-2.56l6.01-23.25h7.96l12.21,29.13L389.37,96.06"/>
			</defs>
			<use xlink:href="#SVGID_1_"  style="overflow:visible;fill:#FFFFFF;"/>
			<clipPath id="SVGID_2_">
				<use xlink:href="#SVGID_1_"  style="overflow:visible;"/>
			</clipPath>
		</g>
	</g>
</g>
</svg>
